<?xml version="1.0" standalone="no"?>
<!DOCTYPE svg PUBLIC "-//W3C//DTD SVG 1.1//EN"
"http://www.w3.org/Graphics/SVG/1.1/DTD/svg11.dtd">

<svg width="276" height="186" view_box="0 0 276 186"
xmlns="http://www.w3.org/2000/svg"
xmlns:link="http://www.w3.org/1999/xlink">\n\n<desc>Généré par Mocodo 2.3.7 le Thu, 07 Jul 2022 04:34:58</desc>

<rect id="frame" x="0" y="0" width="276" height="186" fill="#ffffff" stroke="none" stroke-width="0"/>

<!-- Association CONTIENT -->
<line x1="38" y1="51" x2="138" y2="51" stroke="#878787" stroke-width="2"/>
<text x="72" y="68.0" fill="#b2182b" font-family="Verdana" font-size="12">0,N</text>
<line x1="238" y1="51" x2="138" y2="51" stroke="#878787" stroke-width="2"/>
<text x="183" y="68.0" fill="#b2182b" font-family="Verdana" font-size="12">1,1</text>
<g id="association-CONTIENT">
	<path d="M 163 26 a 14 14 90 0 1 14 14 V 51 h -78 V 40 a 14 14 90 0 1 14 -14" fill="#bababa" stroke="#bababa" stroke-width="0"/>
	<path d="M 177 51.0 v 11 a 14 14 90 0 1 -14 14 H 113 a 14 14 90 0 1 -14 -14 V 51.0 H 78" fill="#e0e0e0" stroke="#e0e0e0" stroke-width="0"/>
	<rect x="99" y="26" width="78" height="50" fill="none" rx="14" stroke="#878787" stroke-width="2"/>
	<line x1="99" y1="51" x2="177" y2="51" stroke="#878787" stroke-width="1"/>
	<text x="106" y="43.7" fill="#000000" font-family="Verdana" font-size="12">CONTIENT</text>
</g>

<!-- Association AVOIR -->
<line x1="238" y1="51" x2="238" y2="143" stroke="#878787" stroke-width="2"/>
<text x="243.0" y="110" fill="#b2182b" font-family="Verdana" font-size="12">0,N</text>
<line x1="138" y1="143" x2="238" y2="143" stroke="#878787" stroke-width="2"/>
<text x="171" y="160.0" fill="#b2182b" font-family="Verdana" font-size="12">0,N</text>
<g id="association-AVOIR">
	<path d="M 251 118 a 14 14 90 0 1 14 14 V 143 h -54 V 132 a 14 14 90 0 1 14 -14" fill="#bababa" stroke="#bababa" stroke-width="0"/>
	<path d="M 265 143.0 v 11 a 14 14 90 0 1 -14 14 H 225 a 14 14 90 0 1 -14 -14 V 143.0 H 54" fill="#e0e0e0" stroke="#e0e0e0" stroke-width="0"/>
	<rect x="211" y="118" width="54" height="50" fill="none" rx="14" stroke="#878787" stroke-width="2"/>
	<line x1="211" y1="143" x2="265" y2="143" stroke="#878787" stroke-width="1"/>
	<text x="218" y="135.7" fill="#000000" font-family="Verdana" font-size="12">AVOIR</text>
</g>

<!-- Entity LISTE -->
<g id="entity-LISTE">
	<g id="frame-LISTE">
		<rect x="9" y="17" width="58" height="25" fill="#f4a582" stroke="#f4a582" stroke-width="0"/>
		<rect x="9" y="42.0" width="58" height="43" fill="#fddbc7" stroke="#fddbc7" stroke-width="0"/>
		<rect x="9" y="17" width="58" height="68" fill="none" stroke="#d6604d" stroke-width="2"/>
		<line x1="9" y1="42" x2="67" y2="42" stroke="#d6604d" stroke-width="1"/>
	</g>
	<text x="20" y="34.7" fill="#000000" font-family="Verdana" font-size="12">LISTE</text>
	<text x="14" y="59.8" fill="#000000" font-family="Verdana" font-size="12">nom</text>
	<line x1="14" y1="62" x2="42" y2="62" stroke="#000000" stroke-width="1"/>
	<text x="14" y="76.8" fill="#000000" font-family="Verdana" font-size="12">position</text>
</g>

<!-- Entity CARTE -->
<g id="entity-CARTE">
	<g id="frame-CARTE">
		<rect x="209" y="9" width="58" height="25" fill="#f4a582" stroke="#f4a582" stroke-width="0"/>
		<rect x="209" y="34.0" width="58" height="59" fill="#fddbc7" stroke="#fddbc7" stroke-width="0"/>
		<rect x="209" y="9" width="58" height="84" fill="none" stroke="#d6604d" stroke-width="2"/>
		<line x1="209" y1="34" x2="267" y2="34" stroke="#d6604d" stroke-width="1"/>
	</g>
	<text x="217" y="26.7" fill="#000000" font-family="Verdana" font-size="12">CARTE</text>
	<text x="214" y="51.8" fill="#000000" font-family="Verdana" font-size="12">titre</text>
	<line x1="214" y1="54" x2="240" y2="54" stroke="#000000" stroke-width="1"/>
	<text x="214" y="68.8" fill="#000000" font-family="Verdana" font-size="12">position</text>
	<text x="214" y="85.8" fill="#000000" font-family="Verdana" font-size="12">couleur</text>
</g>

<!-- Entity LABEL -->
<g id="entity-LABEL">
	<g id="frame-LABEL">
		<rect x="110" y="109" width="56" height="25" fill="#f4a582" stroke="#f4a582" stroke-width="0"/>
		<rect x="110" y="134.0" width="56" height="43" fill="#fddbc7" stroke="#fddbc7" stroke-width="0"/>
		<rect x="110" y="109" width="56" height="68" fill="none" stroke="#d6604d" stroke-width="2"/>
		<line x1="110" y1="134" x2="166" y2="134" stroke="#d6604d" stroke-width="1"/>
	</g>
	<text x="119" y="126.7" fill="#000000" font-family="Verdana" font-size="12">LABEL</text>
	<text x="115" y="151.8" fill="#000000" font-family="Verdana" font-size="12">nom</text>
	<line x1="115" y1="154" x2="143" y2="154" stroke="#000000" stroke-width="1"/>
	<text x="115" y="168.8" fill="#000000" font-family="Verdana" font-size="12">couleur</text>
</g>
</svg>